<svg id="Layer_3" enable-background="new 0 0 64 64" height="512" viewBox="0 0 64 64" width="512" xmlns="http://www.w3.org/2000/svg"><path d="m60 61v-29c0-.552-.448-1-1-1h-6v-16h1v-2h-1.069c-.318-2.529-1.818-4.691-3.931-5.918v-2.082c0-.552-.448-1-1-1h-2c0-1.654-1.346-3-3-3h-17c-1.654 0-3 1.346-3 3v30.051c-1.05.095-2.055.343-3 .713v-1.764h1v-2h-1v-7h1v-2h-1v-7h1v-2h-13v2h1v3h-2c-1.654 0-3 1.346-3 3v40h-1v2h58v-2zm-2-28v28h-5v-28zm-43 27v1h-6v-1zm2 0h3v1h-3zm17-29h-2c-.552 0-1 .448-1 1v4.521c-1.661-1.374-3.733-2.265-6-2.471v-5.05h8c.551 0 1 .449 1 1zm-1.059 13h-17.882c.5-4.493 4.317-8 8.941-8s8.442 3.507 8.941 8zm0 2c-.463 4.165-3.777 7.478-7.941 7.941v-2.941h-2v2.941c-4.164-.463-7.478-3.776-7.941-7.941zm-15.941 7.479c.318.263.654.503 1 .729v3.792h-1zm4 4.521h-1v-2.764c.945.371 1.95.618 3 .713v5.051h-1v-2c0-.553-.448-1-1-1zm4-2.051c2.267-.206 4.339-1.097 6-2.471v7.522h-6zm8-4.644c1.075-1.53 1.771-3.342 1.949-5.305h1.051v-2h-1.051c-.178-1.962-.874-3.775-1.949-5.305v-5.695h4v28h-4zm10.463-7.305-4.463 3.826v-7.652zm-2.76-5h8.594l-4.297 3.683zm4.297 6.317 4.297 3.683h-8.594zm6 2.509-4.463-3.826 4.463-3.826zm-10.297-10.826 4.297-3.683 4.297 3.683zm0-10h8.594l-4.297 3.683zm0-2 3.544-3.038c.249.023.499.038.753.038s.504-.015.752-.038l3.545 3.038zm1.17-3.637-2.873 2.463v-4.552c.786.893 1.763 1.615 2.873 2.089zm-2.199-4.611 3.422 2.933c-1.484-.498-2.709-1.56-3.422-2.933zm3.789 15.248-4.463 3.826v-7.652zm-2.76 19h8.594l-4.297 3.683zm2.76 5-4.463 3.826v-7.652zm7.537-3.826v7.652l-4.463-3.826zm0-16.348-4.463-3.826 4.463-3.826zm0-12-2.873-2.463c1.11-.473 2.087-1.195 2.873-2.089zm-4.096-4.141 3.422-2.933c-.713 1.373-1.938 2.435-3.422 2.933zm-1.904-1.002-4.297-3.683h8.593zm0 38.634 4.297 3.683h-8.594zm5.91-44.317h-11.82c.478-2.833 2.942-5 5.91-5s5.431 2.167 5.91 5zm-3.91-7v.263c-.641-.166-1.308-.263-2-.263s-1.359.097-2 .263v-.263h2zm-21-3h17c.551 0 1 .449 1 1h-2c-.552 0-1 .448-1 1v2.082c-2.113 1.227-3.613 3.388-3.931 5.918h-1.069v2h1v16h-1v-1c0-1.654-1.346-3-3-3h-8v-23c0-.551.449-1 1-1zm-8 32.792c-2.743 1.793-4.638 4.773-4.949 8.208h-1.051v2h1.051c.178 1.962.874 3.775 1.949 5.305v6.695h-4v-7h2v-2h-2v-7h2v-2h-2v-7h7zm0-4.792h-7v-7h7zm0-16v7h-7v-7zm-12 6c0-.551.449-1 1-1h2v2h-1v2h1v7h-1v2h1v7h-1v2h1v7h-1v2h1v7h-1c-.552 0-1 .447-1 1v2h-1z"/></svg>